<svg aria-hidden="true" style="position: absolute; width: 0; height: 0; overflow: hidden;" version="1.1" xmlns="http://www.w3.org/2000/svg" xmlns:xlink="http://www.w3.org/1999/xlink">
<defs>
<symbol id="icon-account-client" viewBox="0 0 32 32">
<path d="M16 2.667c-7.36 0-13.333 5.973-13.333 13.333s5.973 13.333 13.333 13.333 13.333-5.973 13.333-13.333-5.973-13.333-13.333-13.333zM16 8c2.573 0 4.667 2.093 4.667 4.667s-2.093 4.667-4.667 4.667-4.667-2.093-4.667-4.667 2.093-4.667 4.667-4.667zM16 26.667c-2.707 0-5.907-1.093-8.187-3.84 2.253-1.76 5.093-2.827 8.187-2.827s5.933 1.067 8.187 2.827c-2.28 2.747-5.48 3.84-8.187 3.84z"></path>
</symbol>
<symbol id="icon-search" viewBox="0 0 32 32">
<path d="M20.667 18.667h-1.053l-0.373-0.36c1.307-1.52 2.093-3.493 2.093-5.64 0-4.787-3.88-8.667-8.667-8.667s-8.667 3.88-8.667 8.667 3.88 8.667 8.667 8.667c2.147 0 4.12-0.787 5.64-2.093l0.36 0.373v1.053l6.667 6.653 1.987-1.987-6.653-6.667zM12.667 18.667c-3.32 0-6-2.68-6-6s2.68-6 6-6 6 2.68 6 6-2.68 6-6 6z"></path>
</symbol>
<symbol id="icon-shopping-cart" viewBox="0 0 32 32">
<path d="M20.733 17.333c1 0 1.88-0.547 2.333-1.373l4.773-8.653c0.493-0.88-0.147-1.973-1.16-1.973h-19.733l-1.253-2.667h-4.36v2.667h2.667l4.8 10.12-1.8 3.253c-0.973 1.787 0.307 3.96 2.333 3.96h16v-2.667h-16l1.467-2.667h9.933zM8.213 8h16.2l-3.68 6.667h-9.36l-3.16-6.667zM9.333 24c-1.467 0-2.653 1.2-2.653 2.667s1.187 2.667 2.653 2.667 2.667-1.2 2.667-2.667-1.2-2.667-2.667-2.667zM22.667 24c-1.467 0-2.653 1.2-2.653 2.667s1.187 2.667 2.653 2.667 2.667-1.2 2.667-2.667-1.2-2.667-2.667-2.667z"></path>
</symbol>
<symbol id="icon-burger" viewBox="0 0 32 32">
<path d="M2.667 21.333v2.667h26.667v-2.667h-26.667zM2.667 14.667v2.667h26.667v-2.667h-26.667zM2.667 8v2.667h26.667v-2.667h-26.667z"></path>
</symbol>
</defs>
</svg>
